<svg width="24" height="24" viewBox="0 0 24 24" fill="none" xmlns="http://www.w3.org/2000/svg">
<g clip-path="url(#clip0)">
<path d="M11.8722 2.35354C14.9451 2.35354 15.3096 2.36505 16.5238 2.42068C19.6427 2.56262 21.0995 4.04248 21.2415 7.13839C21.2971 8.35162 21.3077 8.71607 21.3077 11.789C21.3077 14.8628 21.2961 15.2263 21.2415 16.4395C21.0986 19.5326 19.6456 21.0153 16.5238 21.1572C15.3096 21.2129 14.947 21.2244 11.8722 21.2244C8.79934 21.2244 8.43489 21.2129 7.22166 21.1572C4.09506 21.0143 2.64589 19.5278 2.50395 16.4386C2.44832 15.2253 2.43681 14.8619 2.43681 11.788C2.43681 8.71511 2.44928 8.35162 2.50395 7.13743C2.64685 4.04248 4.09985 2.56166 7.22166 2.41972C8.43585 2.36505 8.79934 2.35354 11.8722 2.35354ZM11.8722 0.279053C8.74659 0.279053 8.35529 0.29248 7.12767 0.348106C2.948 0.539922 0.62511 2.85898 0.433294 7.04248C0.376708 8.27106 0.363281 8.66236 0.363281 11.788C0.363281 14.9136 0.376708 15.3059 0.432335 16.5335C0.624151 20.7132 2.9432 23.0361 7.12671 23.2279C8.35529 23.2835 8.74659 23.297 11.8722 23.297C14.9979 23.297 15.3901 23.2835 16.6178 23.2279C20.7936 23.0361 23.1222 20.717 23.3112 16.5335C23.3678 15.3059 23.3812 14.9136 23.3812 11.788C23.3812 8.66236 23.3678 8.27106 23.3121 7.04344C23.1241 2.86761 20.8022 0.540881 16.6187 0.349066C15.3901 0.29248 14.9979 0.279053 11.8722 0.279053V0.279053ZM11.8722 5.87816C8.60849 5.87816 5.96239 8.52426 5.96239 11.788C5.96239 15.0518 8.60849 17.6988 11.8722 17.6988C15.136 17.6988 17.7821 15.0527 17.7821 11.788C17.7821 8.52426 15.136 5.87816 11.8722 5.87816ZM11.8722 15.6243C9.75363 15.6243 8.03591 13.9076 8.03591 11.788C8.03591 9.6694 9.75363 7.95169 11.8722 7.95169C13.9908 7.95169 15.7085 9.6694 15.7085 11.788C15.7085 13.9076 13.9908 15.6243 11.8722 15.6243ZM18.0161 4.26403C17.2527 4.26403 16.6341 4.88263 16.6341 5.6451C16.6341 6.40757 17.2527 7.02618 18.0161 7.02618C18.7786 7.02618 19.3962 6.40757 19.3962 5.6451C19.3962 4.88263 18.7786 4.26403 18.0161 4.26403Z" fill="#222222"/>
</g>
<defs>
<clipPath id="clip0">
<rect width="23.0179" height="23.0179" fill="white" transform="translate(0.363281 0.279053)"/>
</clipPath>
</defs>
</svg>
