<svg width="24" height="19" viewBox="0 0 24 19" fill="none" xmlns="http://www.w3.org/2000/svg">
<path d="M23.0179 2.49357C22.171 2.86953 21.2609 3.12272 20.3056 3.23685C21.281 2.65277 22.03 1.72726 22.382 0.624321C21.4699 1.16524 20.4591 1.55846 19.383 1.77042C18.5227 0.852582 17.2941 0.279053 15.9361 0.279053C12.8871 0.279053 10.6467 3.12368 11.3354 6.07669C7.41176 5.88007 3.93222 4.00028 1.60262 1.14318C0.365409 3.26563 0.960997 6.04216 3.0633 7.44817C2.29028 7.42323 1.56138 7.21128 0.925511 6.85738C0.873721 9.04504 2.44182 11.0917 4.71292 11.5473C4.04827 11.7276 3.32033 11.7698 2.57992 11.6278C3.18031 13.5038 4.92391 14.8686 6.99169 14.9069C5.00639 16.4635 2.50511 17.1588 0 16.8635C2.08983 18.2033 4.57289 18.9849 7.23913 18.9849C16.007 18.9849 20.9607 11.5799 20.6614 4.93826C21.5841 4.2717 22.3849 3.44018 23.0179 2.49357Z" fill="#222222"/>
</svg>
